<?xml version="1.0" encoding="UTF-8"?>
<!DOCTYPE svg PUBLIC "-//W3C//DTD SVG 1.1//EN" "http://www.w3.org/Graphics/SVG/1.1/DTD/svg11.dtd">
<svg xmlns="http://www.w3.org/2000/svg" version="1.1" width="1000px" height="1000px" style="shape-rendering:geometricPrecision; text-rendering:geometricPrecision; image-rendering:optimizeQuality; fill-rule:evenodd; clip-rule:evenodd" xmlns:xlink="http://www.w3.org/1999/xlink">
<g><path style="opacity:1" fill="#7ecce9" d="M 917.5,539.5 C 916.108,537.727 914.941,535.727 914,533.5C 876.625,491.629 839.458,449.629 802.5,407.5C 788.655,391.784 774.821,376.117 761,360.5C 758.566,356.618 755.899,352.952 753,349.5C 750.765,347.798 748.265,346.798 745.5,346.5C 742.735,346.798 740.235,347.798 738,349.5C 727.978,363.012 716.978,375.679 705,387.5C 703.579,389.405 702.412,391.405 701.5,393.5C 699.983,393.511 698.816,394.177 698,395.5C 641.811,459.706 585.478,524.04 529,588.5C 527.546,591.071 526.38,593.738 525.5,596.5C 505.442,568.074 485.609,539.407 466,510.5C 463.628,508.297 461.461,505.963 459.5,503.5C 445.221,482.048 430.721,460.714 416,439.5C 413.603,437.218 410.769,435.884 407.5,435.5C 405.407,436.045 403.407,436.878 401.5,438C 385.473,457.887 369.807,478.053 354.5,498.5C 294.056,575.111 233.89,651.777 174,728.5C 172.092,731.206 171.259,734.206 171.5,737.5C 106.882,639.489 86.7154,532.822 111,417.5C 140.217,299.801 207.05,210.634 311.5,150C 412.266,96.3594 517.599,85.0261 627.5,116C 750.407,155.862 837.574,235.028 889,353.5C 913.095,413.334 922.595,475.334 917.5,539.5 Z"/></g>
<g><path style="opacity:1" fill="#e3e4e3" d="M 304.5,240.5 C 312.35,239.928 319.017,242.428 324.5,248C 328.887,248.226 333.221,248.726 337.5,249.5C 341.754,247.093 346.088,246.926 350.5,249C 354.933,251.133 358.433,254.3 361,258.5C 361.81,263.257 361.476,267.924 360,272.5C 353.848,276.798 347.015,278.298 339.5,277C 335.928,275.431 332.928,273.098 330.5,270C 328.966,269.077 327.299,268.577 325.5,268.5C 319.178,269.597 313.178,271.43 307.5,274C 302.833,274.667 298.167,274.667 293.5,274C 289.964,270.799 286.797,267.299 284,263.5C 282.738,259.091 283.572,255.257 286.5,252C 289.658,250.531 292.991,249.531 296.5,249C 298.179,245.067 300.846,242.234 304.5,240.5 Z"/></g>
<g><path style="opacity:1" fill="#e3e3e4" d="M 546.5,299.5 C 550.182,299.335 553.848,299.501 557.5,300C 562.543,304.712 567.877,309.045 573.5,313C 577.649,314.737 581.983,315.737 586.5,316C 591.793,319.886 593.96,325.053 593,331.5C 592.097,332.701 590.931,333.535 589.5,334C 582.618,336.05 575.618,336.717 568.5,336C 565.537,334.039 562.871,331.706 560.5,329C 559,328.833 557.5,328.667 556,328.5C 551.27,330.102 546.437,331.602 541.5,333C 535.388,333.909 529.388,333.576 523.5,332C 520.651,329.441 519.817,326.274 521,322.5C 523.382,319.573 525.882,316.739 528.5,314C 531.611,313.556 534.277,312.223 536.5,310C 540.037,306.631 543.371,303.131 546.5,299.5 Z"/></g>
<g><path style="opacity:1" fill="#fefffe" d="M 745.5,346.5 C 744.527,348.068 744.36,349.735 745,351.5C 754.182,373.192 763.348,394.859 772.5,416.5C 772.5,416.833 772.5,417.167 772.5,417.5C 768.032,422.139 763.699,426.972 759.5,432C 756.364,433.041 753.864,432.207 752,429.5C 747.385,422.55 742.385,415.884 737,409.5C 733.535,413.967 729.702,418.133 725.5,422C 723.833,422.667 722.167,422.667 720.5,422C 714.667,414.167 708.833,406.333 703,398.5C 701.991,396.975 701.491,395.308 701.5,393.5C 702.412,391.405 703.579,389.405 705,387.5C 716.978,375.679 727.978,363.012 738,349.5C 740.235,347.798 742.735,346.798 745.5,346.5 Z"/></g>
<g><path style="opacity:1" fill="#e1e2e1" d="M 745.5,346.5 C 748.265,346.798 750.765,347.798 753,349.5C 755.899,352.952 758.566,356.618 761,360.5C 774.821,376.117 788.655,391.784 802.5,407.5C 800.688,413.512 797.355,418.678 792.5,423C 790.5,423.667 788.5,423.667 786.5,423C 781.932,420.548 777.265,418.382 772.5,416.5C 763.348,394.859 754.182,373.192 745,351.5C 744.36,349.735 744.527,348.068 745.5,346.5 Z"/></g>
<g><path style="opacity:1" fill="#646564" d="M 701.5,393.5 C 701.491,395.308 701.991,396.975 703,398.5C 708.833,406.333 714.667,414.167 720.5,422C 722.167,422.667 723.833,422.667 725.5,422C 729.702,418.133 733.535,413.967 737,409.5C 742.385,415.884 747.385,422.55 752,429.5C 753.864,432.207 756.364,433.041 759.5,432C 763.699,426.972 768.032,422.139 772.5,417.5C 804.423,510.101 836.256,602.768 868,695.5C 868.66,697.324 869.827,698.657 871.5,699.5C 832.603,771.73 777.27,827.73 705.5,867.5C 706.3,865.393 706.967,863.226 707.5,861C 706.42,857.338 704.92,853.838 703,850.5C 643.577,765.979 584.411,681.312 525.5,596.5C 526.38,593.738 527.546,591.071 529,588.5C 585.478,524.04 641.811,459.706 698,395.5C 698.816,394.177 699.983,393.511 701.5,393.5 Z"/></g>
<g><path style="opacity:1" fill="#515251" d="M 802.5,407.5 C 839.458,449.629 876.625,491.629 914,533.5C 914.941,535.727 916.108,537.727 917.5,539.5C 913.347,596.124 898.013,649.457 871.5,699.5C 869.827,698.657 868.66,697.324 868,695.5C 836.256,602.768 804.423,510.101 772.5,417.5C 772.5,417.167 772.5,416.833 772.5,416.5C 777.265,418.382 781.932,420.548 786.5,423C 788.5,423.667 790.5,423.667 792.5,423C 797.355,418.678 800.688,413.512 802.5,407.5 Z"/></g>
<g><path style="opacity:1" fill="#fefffe" d="M 407.5,435.5 C 406.476,438.473 406.643,441.473 408,444.5C 416.144,471.763 423.977,499.096 431.5,526.5C 424.696,521.927 417.696,517.594 410.5,513.5C 402.021,520.144 393.688,526.978 385.5,534C 383.833,534.667 382.167,534.667 380.5,534C 372.547,524.592 364.714,515.092 357,505.5C 355.097,503.559 354.264,501.226 354.5,498.5C 369.807,478.053 385.473,457.887 401.5,438C 403.407,436.878 405.407,436.045 407.5,435.5 Z"/></g>
<g><path style="opacity:1" fill="#e1e1e1" d="M 407.5,435.5 C 410.769,435.884 413.603,437.218 416,439.5C 430.721,460.714 445.221,482.048 459.5,503.5C 459.857,507.664 458.19,510.831 454.5,513C 448.649,517.428 442.983,522.094 437.5,527C 436.552,527.483 435.552,527.649 434.5,527.5C 433.391,527.443 432.391,527.11 431.5,526.5C 423.977,499.096 416.144,471.763 408,444.5C 406.643,441.473 406.476,438.473 407.5,435.5 Z"/></g>
<g><path style="opacity:1" fill="#7e7e7e" d="M 354.5,498.5 C 354.264,501.226 355.097,503.559 357,505.5C 364.714,515.092 372.547,524.592 380.5,534C 382.167,534.667 383.833,534.667 385.5,534C 393.688,526.978 402.021,520.144 410.5,513.5C 417.696,517.594 424.696,521.927 431.5,526.5C 432.391,527.11 433.391,527.443 434.5,527.5C 433.32,530.17 433.487,532.836 435,535.5C 481.572,660.968 528.405,786.302 575.5,911.5C 492.719,924.769 413.385,913.769 337.5,878.5C 341.976,878.178 343.476,875.844 342,871.5C 336.164,867.847 333.331,869.514 333.5,876.5C 275.425,849.278 226.591,810.278 187,759.5C 181.614,752.287 176.447,744.954 171.5,737.5C 171.259,734.206 172.092,731.206 174,728.5C 233.89,651.777 294.056,575.111 354.5,498.5 Z"/></g>
<g><path style="opacity:1" fill="#6f706f" d="M 459.5,503.5 C 461.461,505.963 463.628,508.297 466,510.5C 485.609,539.407 505.442,568.074 525.5,596.5C 584.411,681.312 643.577,765.979 703,850.5C 704.92,853.838 706.42,857.338 707.5,861C 706.967,863.226 706.3,865.393 705.5,867.5C 664.695,889.546 621.362,904.213 575.5,911.5C 528.405,786.302 481.572,660.968 435,535.5C 433.487,532.836 433.32,530.17 434.5,527.5C 435.552,527.649 436.552,527.483 437.5,527C 442.983,522.094 448.649,517.428 454.5,513C 458.19,510.831 459.857,507.664 459.5,503.5 Z"/></g>
<g><path style="opacity:1" fill="#9b8e19" d="M 373.5,590.5 C 367.833,590.5 362.167,590.5 356.5,590.5C 356.062,590.565 355.728,590.399 355.5,590C 358.667,586.833 361.833,583.667 365,580.5C 368.167,583.667 371.333,586.833 374.5,590C 374.272,590.399 373.938,590.565 373.5,590.5 Z"/></g>
<g><path style="opacity:1" fill="#fefffe" d="M 356.5,590.5 C 362.167,590.5 367.833,590.5 373.5,590.5C 373.666,594.846 373.499,599.179 373,603.5C 371.989,604.337 370.822,604.67 369.5,604.5C 369.5,602.5 369.5,600.5 369.5,598.5C 368.5,598.5 367.5,598.5 366.5,598.5C 366.5,600.5 366.5,602.5 366.5,604.5C 363.223,604.784 360.057,604.451 357,603.5C 356.501,599.179 356.334,594.846 356.5,590.5 Z"/></g>
<g><path style="opacity:1" fill="#19a5d2" d="M 359.5,593.5 C 360.693,593.97 361.36,594.97 361.5,596.5C 361.167,597.5 360.833,598.5 360.5,599.5C 359.534,597.604 359.201,595.604 359.5,593.5 Z"/></g>
<g><path style="opacity:1" fill="#b5a51c" d="M 369.5,604.5 C 368.5,604.5 367.5,604.5 366.5,604.5C 366.5,602.5 366.5,600.5 366.5,598.5C 367.5,598.5 368.5,598.5 369.5,598.5C 369.5,600.5 369.5,602.5 369.5,604.5 Z"/></g>
<g><path style="opacity:1" fill="#e61918" d="M 381.5,608.5 C 388.486,608.331 390.153,611.164 386.5,617C 379.416,617.475 377.749,614.642 381.5,608.5 Z"/></g>
<g><path style="opacity:1" fill="#e61918" d="M 400.5,625.5 C 407.486,625.331 409.153,628.164 405.5,634C 398.416,634.475 396.749,631.642 400.5,625.5 Z"/></g>
<g><path style="opacity:1" fill="#e61918" d="M 423.5,641.5 C 430.486,641.331 432.153,644.164 428.5,650C 421.416,650.475 419.749,647.642 423.5,641.5 Z"/></g>
<g><path style="opacity:1" fill="#e61918" d="M 455.5,655.5 C 462.486,655.331 464.153,658.164 460.5,664C 453.416,664.475 451.749,661.642 455.5,655.5 Z"/></g>
<g><path style="opacity:1" fill="#e61918" d="M 479.5,680.5 C 486.486,680.331 488.153,683.164 484.5,689C 477.416,689.475 475.749,686.642 479.5,680.5 Z"/></g>
<g><path style="opacity:1" fill="#e61918" d="M 490.5,715.5 C 497.486,715.331 499.153,718.164 495.5,724C 488.416,724.475 486.749,721.642 490.5,715.5 Z"/></g>
<g><path style="opacity:1" fill="#e61918" d="M 475.5,751.5 C 482.486,751.331 484.153,754.164 480.5,760C 473.416,760.475 471.749,757.642 475.5,751.5 Z"/></g>
<g><path style="opacity:1" fill="#e61918" d="M 447.5,777.5 C 454.486,777.331 456.153,780.164 452.5,786C 445.416,786.475 443.749,783.642 447.5,777.5 Z"/></g>
<g><path style="opacity:1" fill="#e61918" d="M 422.5,799.5 C 429.486,799.331 431.153,802.164 427.5,808C 420.416,808.475 418.749,805.642 422.5,799.5 Z"/></g>
<g><path style="opacity:1" fill="#e61918" d="M 392.5,820.5 C 399.486,820.331 401.153,823.164 397.5,829C 390.416,829.475 388.749,826.642 392.5,820.5 Z"/></g>
<g><path style="opacity:1" fill="#e61918" d="M 367.5,833.5 C 374.486,833.331 376.153,836.164 372.5,842C 365.416,842.475 363.749,839.642 367.5,833.5 Z"/></g>
<g><path style="opacity:1" fill="#e61918" d="M 349.5,853.5 C 356.486,853.331 358.153,856.164 354.5,862C 347.416,862.475 345.749,859.642 349.5,853.5 Z"/></g>
<g><path style="opacity:1" fill="#e51d1a" d="M 337.5,878.5 C 335.847,878.34 334.514,877.674 333.5,876.5C 333.331,869.514 336.164,867.847 342,871.5C 343.476,875.844 341.976,878.178 337.5,878.5 Z"/></g>
</svg>
