<?xml version="1.0" encoding="utf-8"?>
<!-- Generator: Adobe Illustrator 27.5.0, SVG Export Plug-In . SVG Version: 6.00 Build 0)  -->
<svg version="1.1" id="Layer_1" xmlns="http://www.w3.org/2000/svg" xmlns:xlink="http://www.w3.org/1999/xlink" x="0px" y="0px"
	 width="128px" height="128px" viewBox="0 0 128 128" style="enable-background:new 0 0 128 128;" xml:space="preserve">
<path class="fm_fill" d="M61.1,86.8V54.2c0-1.7-1.4-3.1-3.1-3.1c-1.7,0-3.1,1.4-3.1,3.1v32.6c-3.2,1.2-5.5,4.4-5.5,8
	c0,4.7,3.8,8.6,8.6,8.6c4.7,0,8.6-3.8,8.6-8.6C66.6,91.1,64.3,88,61.1,86.8z"/>
<path class="fm_fill" d="M57.8,112.2c-9.8,0-17.9-8-17.9-17.9c0-5.6,2.2-10.5,6.1-13.7V29.6c0-6.1,3.1-13.1,11.8-13.1
	c8.7,0,11.8,7.1,11.8,13.1v51.1c3.9,3.2,6.1,8.1,6.1,13.7C75.7,104.2,67.7,112.2,57.8,112.2z M57.8,22.5c-2.6,0-5.8,1.2-5.8,7.1
	v54.2l-1.3,0.9c-3.1,2.1-4.8,5.5-4.8,9.7c0,6.5,5.3,11.9,11.9,11.9s11.9-5.3,11.9-11.9c0-4.2-1.7-7.6-4.8-9.7l-1.3-0.9V29.6
	C63.6,23.7,60.4,22.5,57.8,22.5z M86.8,27.5H74.2v6h12.6V27.5z M86.8,49.6H74.2v6h12.6V49.6z M82.6,38.5h-8.3v6h8.3V38.5z
	 M82.6,60.6h-8.3v6h8.3V60.6z M86.8,71.6H74.2v6h12.6V71.6z"/>
</svg>
